<svg id="svg" xmlns="http://www.w3.org/2000/svg"  width="400" height="254.72222222222223" viewBox="0, 0, 400,254.72222222222223"><g id="svgg"><path id="path0" d="M246.250 30.166 C 245.486 30.224,242.861 30.462,240.417 30.694 C 237.972 30.925,190.660 34.868,135.278 39.455 C 79.896 44.042,34.083 47.923,33.472 48.079 C 1.175 56.347,-8.395 84.830,9.936 118.133 C 11.389 120.774,77.714 207.442,80.136 209.865 C 88.180 217.914,104.419 222.339,118.194 220.237 C 121.540 219.727,382.782 164.761,385.395 164.018 C 399.328 160.055,404.395 148.537,396.199 139.456 C 394.707 137.804,283.125 39.940,279.905 37.460 C 273.149 32.258,258.987 29.188,246.250 30.166 " stroke="none" fill="#000000" fill-rule="evenodd"></path></g></svg>