<svg width="34" height="40" viewBox="0 0 34 40" fill="none" xmlns="http://www.w3.org/2000/svg">
<path d="M27.9179 21.2531C27.8674 16.1874 32.0491 13.7579 32.2359 13.6372C29.8863 10.199 26.2261 9.72795 24.9218 9.6735C21.8069 9.35811 18.8439 11.5074 17.263 11.5074C15.6861 11.5074 13.2467 9.72014 10.6633 9.76709C7.26818 9.81756 4.13763 11.7412 2.38943 14.7819C-1.13807 20.903 1.48607 29.971 4.9242 34.9353C6.6042 37.3653 8.60748 40.0945 11.2377 39.997C13.7706 39.8959 14.7284 38.358 17.7907 38.358C20.8529 38.358 21.7137 39.997 24.3941 39.9467C27.1197 39.8961 28.8465 37.4702 30.515 35.0328C32.4442 32.2137 33.2386 29.4844 33.2854 29.3444C33.2249 29.3167 27.9705 27.3038 27.9179 21.2531ZM22.8813 6.38709C24.2773 4.69342 25.2196 2.34365 24.9626 -0.000488281C22.9517 0.0813867 20.5143 1.33897 19.0715 3.02881C17.777 4.52787 16.6438 6.92045 16.9475 9.21771C19.1923 9.39287 21.4838 8.07693 22.8813 6.38709Z" fill="#CF1257"/>
</svg>
